<?xml version="1.0" encoding="utf-8"?>
<!-- Generator: Adobe Illustrator 19.0.0, SVG Export Plug-In . SVG Version: 6.00 Build 0)  -->
<svg version="1.1" xmlns="http://www.w3.org/2000/svg" xmlns:xlink="http://www.w3.org/1999/xlink" x="0px" y="0px"
	 viewBox="0 0 595.3 654" style="enable-background:new 0 0 595.3 654;" xml:space="preserve">
<style type="text/css">
	.st0{display:none;}
	.st1{fill:#FFFFFF;}
	.st2{fill:none;stroke:#000000;stroke-width:3;stroke-linecap:round;stroke-miterlimit:10;}
	.st3{display:inline;}
</style>
<g id="Warstwa_2">
	<path d="M492.7,481c-7.1-2.9-18.2-4.3-35.2,3c0,0-16.5-7-36-17C521,471,630,289.5,550,264.5c0,0-23.5-7-40.5,7.5
		c-26,20.5,4,123-88.5,143.5c0,0,8-24-15-47.5l55-31.5c0,0,0.5-36.5-2.5-46.5l-97.5-9.5c0,0,23.5-17.5,32.5-48.5
		c0,0,20-21.5,35-28.5c0,0-12.5-9.5-21-8.5c0,0,16.5-20.5,27-34C405,133.5,379,86,369,15.5c0,0-3.7-4.2-8.8-0.8
		C355,18,324,58.8,307,62.5s-30.3-4.3-71.7,4.7c0,0-33.2-25-37.2-40.7c-9.3-8.5-12.3,3.8-12.3,3.8s-3.2,51.3-8,56.7
		c0,0-14,12.8-20.5,21c0,0-3-8.7-8.2-18.5c0,0,6.7-16,19-18c0,0-12-24.5-17.5-32.8c0,0-15.2,4.8-28.7,22.7
		C109.4,41.7,95.6,29,85.7,26.8c-2.2-0.5-6.6-1.4-11.3,0.5c-5.4,2.2-8.1,6.7-9.2,8.7c0,0-10.5-8.8-16.3-4.3
		C43,36.2,35.5,54,44.3,66.2c0,0-29.8-10.2-5.3,65.7c6.8,17.2,21.3,47.7,58.7,50.8L205,331.5c1.3-2.6,3.4-5.9,6.6-9.2
		c4.9-5,10.1-7.6,13.4-9c2.4,1.1,5.8,2.3,9.9,2.9c4.1,0.7,7.7,0.6,10.3,0.3c0.9,0,2.1,0.2,3.5,0.8c1.9,0.8,3.2,1.9,3.9,2.7l-1.7,3
		c0,0-9.2-6.2-16.8-5.3c-7.7,0.8-21.5,2.3-27.2,21c0,0-15.5,0.7-28.3,18c-12.8,17.3-33.8,48.5-16.8,61.2s33-4,33-4s6.2,39,45.3,32.7
		c0,0-9,2.5,0.3,17.5l-19,16c0,0-11.5-52-59-34.5s-44,160,36,171c62,1.5,56.5-41,56.5-41l60-51.5c0,0,24.5,2.5,35.5-1l61.5,36.5
		c0,0-32.5,84.5,56.5,84c4.2,0,20.5-0.9,32.9-9.5C542.7,605.7,534.1,497.7,492.7,481z M354.3,339.9l-4.9-13.8l17.1,0.9L354.3,339.9z
		"/>
</g>
<g id="Warstwa_8">
</g>
<g id="Warstwa_3">
	<path class="st1" d="M158,224c1.7,11.2,6.9,35.8,25.9,56.8c10.9,12,22.7,18.8,32.8,24.7c9.5,5.5,14.1,6.9,18,7.7
		c8.6,1.6,15.8,0.2,27-2c6.5-1.3,98-16.7,113-74.5c0.3-5.2-0.2-14.4-6.3-20.7c-10-10.3-32.5-10-51.7,5.7
		c-7.1,4.4-17.6,9.3-30.7,10.3c-6.8,0.5-27.5,2.2-39-11c-2-2.3-3.3-4.5-4-6c-1-0.8-2-1.6-3-2.3l-49,9.8l-8.5-1.7
		C182.5,220.8,175.3,230,158,224z"/>
	<path class="st1" d="M186.3,107.7c-7.7,5.3-17.6,21.8-24,41.3c-8.4,25.4-10.7,62.7,3.2,69c4.8,2.2,11.4,0.8,20-5
		c10.5-4,12.5-6,20.2-8c7.7-2,8.3-8,8.3-8s14.7-56,13.3-70c-1.5-15.3-4.4-21.4-9.2-24.5C206.2,94.8,194,102.3,186.3,107.7z"/>
	<path class="st1" d="M221,196c1.3-7.5,3.4-19.1,8-41c3.1-14.7,4.6-22,5.3-23.8c3.2-8.9,7.5-20.7,18.9-30.6
		c8.8-7.6,18-10.6,22.5-11.8c4.7-1.2,20.5-3.5,38,2.8c26,9.4,36.2,40.9,35,64.7c-1.4,28.1-19.8,45.6-24.4,49.9
		c-4.7,4.4-22.2,20.5-45.9,19.4c-10-0.5-29.4-4.1-31.7-13.3c-2.7-11-13.7-1.3-13.7-1.3c-4.6-1.7-9.1-3.3-13.7-5
		C219.9,202.7,220.4,199.3,221,196z"/>
</g>
<g id="Warstwa_4">
	<path d="M188.1,236.4c-7.1-8.2-6.4-21.3-0.8-29.6c7.7-11.2,22.5-10.7,30.2-10.4c6.8,0.2,14.9,0.5,19.8,6.6
		c6.1,7.6,3.3,19.4-0.7,26.2c-8,13.8-25.1,14.5-27.5,14.5C204.9,243.8,194.7,244,188.1,236.4z"/>
	<path d="M177.3,242c5.7,6.6,24.3,26.4,54.6,31c51.2,7.8,79.5-22.4,87.9-37.1c-1.3-0.4-2.8-0.7-4.4-0.8c-6-0.7-11,0.5-14.4,1.7
		c-1.8-1.5,24.3-14,37.5,6.9c0,0-8.4-6.4-11.8-6c0,0-36.4,50.1-75.9,50.3s-68.3-32.3-73.5-38c0,0,4.5,9.8,4.3,11.3s-3.5,6.3-4.3,3
		s-6.3-21.3-2-26C176.9,236.9,177.3,242,177.3,242z"/>
</g>
<g id="Warstwa_5">
	<path d="M212,248.7c0,0-2.3,1.2,0.9,6.5c3.2,5.3,4.1,8.2,6.1,7.3S213.8,247.6,212,248.7z"/>
	<line class="st2" x1="343.8" y1="220" x2="477.5" y2="81.5"/>
	<line class="st2" x1="353.3" y1="221.3" x2="492.3" y2="105.8"/>
	<line class="st2" x1="133.8" y1="227" x2="84.5" y2="212"/>
	<line class="st2" x1="145.5" y1="243.7" x2="88" y2="241.3"/>
</g>
<g id="Warstwa_7" class="st0">
	<path class="st3" d="M334.8,125.8c-4.2,4.7-11.4,14.3-11.7,27.2c-0.1,3.9-0.2,14.4,5.9,17.6c3.8,2,8.1-0.1,8.1-0.1
		c3.2-2.7,8.4-8.1,10.7-16.2c3.6-12.9-1.3-29-7.8-30.2C338,123.8,336.1,124.9,334.8,125.8z"/>
	<path class="st3" d="M220.3,130.8c0,0-8.4-1.8-11.5,5.1s-15.1,32.6-5,39.3c2.6,1.7,4.9,2.2,6.9,1.9c4.4-0.6,7-4.7,8.7-7.4
		c2-3.2,2.9-6.8,4.7-13.8c1.8-7.3,2.2-10.9,2.2-14.5c0-5.1-0.9-7.6-2.7-9.2C222.7,131.5,221.6,131,220.3,130.8z"/>
</g>
<g id="Warstwa_6">
	<ellipse transform="matrix(0.9776 0.2106 -0.2106 0.9776 38.9762 -67.395)" cx="336" cy="149.3" rx="12" ry="25.4"/>
	<ellipse transform="matrix(0.9776 0.2106 -0.2106 0.9776 37.3492 -41.4467)" cx="213.3" cy="154.7" rx="12" ry="25.4"/>
</g>
</svg>
